<svg xmlns="http://www.w3.org/2000/svg" viewBox="0 0 1100 700" font-family="Helvetica, Arial, sans-serif">
  <style>
    .ttl{font-size:13px;font-weight:700;fill:#111}
    .lb{font-size:11px;fill:#111}
    .sm{font-size:10px;fill:#666}
    .menu{fill:#fff;font-size:11px}
    .frame{fill:#fff;stroke:#222;stroke-width:1.2}
    .card{fill:#fff;stroke:#bbb}
    .h{fill:#eef2f8;stroke:#bbb}
  </style>

  <text x="550" y="20" text-anchor="middle" class="ttl">Capture 6.  설비 / OEE  —  GET /api/equipment/oee/dashboard (FN-045) · heatmap · 6 big losses</text>
  <rect x="20" y="40" width="1060" height="640" class="frame"/>
  <rect x="20" y="40" width="1060" height="40" fill="#1f3a93"/>
  <text x="40" y="65" fill="#fff" font-size="13" font-weight="700">DEXWEAVER MES  ›  📈 OEE</text>
  <rect x="20" y="80" width="200" height="600" fill="#243155"/>
  <text x="35" y="105" class="menu">📊 대시보드</text>
  <text x="35" y="128" class="menu">📦 품목 관리</text>
  <text x="35" y="151" class="menu">🧬 BOM</text>
  <text x="35" y="174" class="menu">🔄 공정 / 라우팅</text>
  <text x="35" y="197" class="menu">🏭 설비 관리</text>
  <text x="35" y="220" class="menu">📅 생산 계획</text>
  <text x="35" y="243" class="menu">📝 작업 지시</text>
  <text x="35" y="266" class="menu">✅ 품질 / SPC</text>
  <text x="35" y="289" class="menu" fill="#fff" font-weight="700">📈 OEE</text>
  <text x="35" y="312" class="menu">📦 재고</text>
  <text x="35" y="335" class="menu">🔍 LOT 추적</text>
  <text x="35" y="358" class="menu">🧠 AI 인사이트</text>

  <!-- KPI -->
  <rect x="240" y="100" width="200" height="80" class="card"/>
  <text x="250" y="120" class="sm">전체 OEE</text>
  <text x="250" y="148" font-size="22" font-weight="700" fill="#1e7c39">82.0 %</text>
  <text x="250" y="170" class="sm">world-class 85 %</text>

  <rect x="450" y="100" width="200" height="80" class="card"/>
  <text x="460" y="120" class="sm">가용률 A</text>
  <text x="460" y="148" font-size="22" font-weight="700" fill="#1f3a93">93.8 %</text>
  <text x="460" y="170" class="sm">계획 가동시간 대비</text>

  <rect x="660" y="100" width="200" height="80" class="card"/>
  <text x="670" y="120" class="sm">성능률 P</text>
  <text x="670" y="148" font-size="22" font-weight="700" fill="#1f3a93">93.3 %</text>
  <text x="670" y="170" class="sm">이론 CT 대비</text>

  <rect x="870" y="100" width="190" height="80" class="card"/>
  <text x="880" y="120" class="sm">품질률 Q</text>
  <text x="880" y="148" font-size="22" font-weight="700" fill="#1f3a93">97.1 %</text>
  <text x="880" y="170" class="sm">양품률</text>

  <!-- Heatmap -->
  <rect x="240" y="200" width="500" height="280" class="card"/>
  <rect x="240" y="200" width="500" height="28" class="h"/>
  <text x="252" y="219" class="lb">설비별 OEE 히트맵 (FN-045)  ·  RED &lt; 60 % / YELLOW &lt; 85 % / GREEN ≥ 85 %</text>

  <g font-size="10" text-anchor="middle">
    <rect x="260" y="240" width="100" height="50" fill="#1e7c39"/><text x="310" y="262" fill="#fff">EQP-001</text><text x="310" y="278" fill="#fff">OEE 89 %</text>
    <rect x="370" y="240" width="100" height="50" fill="#1e7c39"/><text x="420" y="262" fill="#fff">EQP-002</text><text x="420" y="278" fill="#fff">OEE 87 %</text>
    <rect x="480" y="240" width="100" height="50" fill="#b58800"/><text x="530" y="262" fill="#fff">EQP-003</text><text x="530" y="278" fill="#fff">OEE 76 %</text>
    <rect x="590" y="240" width="140" height="50" fill="#1e7c39"/><text x="660" y="262" fill="#fff">EQP-004</text><text x="660" y="278" fill="#fff">OEE 88 %</text>

    <rect x="260" y="295" width="100" height="50" fill="#c0392b"/><text x="310" y="317" fill="#fff">EQP-005</text><text x="310" y="333" fill="#fff">OEE 54 %</text>
    <rect x="370" y="295" width="100" height="50" fill="#1e7c39"/><text x="420" y="317" fill="#fff">EQP-006</text><text x="420" y="333" fill="#fff">OEE 91 %</text>
    <rect x="480" y="295" width="100" height="50" fill="#1e7c39"/><text x="530" y="317" fill="#fff">EQP-007</text><text x="530" y="333" fill="#fff">OEE 86 %</text>
    <rect x="590" y="295" width="140" height="50" fill="#1e7c39"/><text x="660" y="317" fill="#fff">EQP-008</text><text x="660" y="333" fill="#fff">OEE 90 %</text>

    <rect x="260" y="350" width="100" height="50" fill="#b58800"/><text x="310" y="372" fill="#fff">EQP-009</text><text x="310" y="388" fill="#fff">OEE 72 %</text>
    <rect x="370" y="350" width="100" height="50" fill="#1e7c39"/><text x="420" y="372" fill="#fff">EQP-010</text><text x="420" y="388" fill="#fff">OEE 85 %</text>
    <rect x="480" y="350" width="100" height="50" fill="#1e7c39"/><text x="530" y="372" fill="#fff">EQP-011</text><text x="530" y="388" fill="#fff">OEE 89 %</text>
    <rect x="590" y="350" width="140" height="50" fill="#1e7c39"/><text x="660" y="372" fill="#fff">EQP-012</text><text x="660" y="388" fill="#fff">OEE 92 %</text>
  </g>

  <text x="252" y="430" class="sm">▸ 30분마다 재계산 ; equip_status_log + work_results + inspections 조인 → A × P × Q 산출</text>
  <text x="252" y="450" class="sm">▸ EQP-005 (RED) : 진단 결과 setup-change 손실 과다 → CMMS work-order 자동 발급 권장</text>
  <text x="252" y="470" class="sm">▸ Drill-down → 일/시간/Shift별 추이, 6 big losses pareto, RUL 예측 (FN-034) 표시</text>

  <!-- 6 big losses -->
  <rect x="760" y="200" width="300" height="280" class="card"/>
  <rect x="760" y="200" width="300" height="28" class="h"/>
  <text x="772" y="219" class="lb">금일 6 Big Losses (전체 라인 합계)</text>

  <g font-size="10" fill="#222">
    <text x="772" y="252">고장 (Breakdown)</text>
    <rect x="900" y="240" width="120" height="14" fill="#c0392b"/><text x="1024" y="252">15 min</text>

    <text x="772" y="272">셋업 (Setup)</text>
    <rect x="900" y="260" width="80"  height="14" fill="#b58800"/><text x="984" y="272">15 min</text>

    <text x="772" y="292">단정지 (Minor stop)</text>
    <rect x="900" y="280" width="55"  height="14" fill="#888"/><text x="958" y="292">10 min</text>

    <text x="772" y="312">속도저하 (Speed loss)</text>
    <rect x="900" y="300" width="100" height="14" fill="#888"/><text x="1004" y="312">20 min</text>

    <text x="772" y="332">불량 (Defect loss)</text>
    <rect x="900" y="320" width="55"  height="14" fill="#c0392b"/><text x="958" y="332">10 min</text>

    <text x="772" y="352">초기수율 (Startup)</text>
    <rect x="900" y="340" width="20"  height="14" fill="#888"/><text x="924" y="352">2 min</text>
  </g>

  <text x="772" y="395" class="sm">합계 손실 : 72 분 (계획 480 분 중 15 %)</text>
  <text x="772" y="412" class="sm">최우선 개선 : 속도저하 → AI 권고 = 20 분 단축</text>
  <text x="772" y="430" class="sm">예상 효과 : OEE 82 % → 86 %  (월드클래스 진입)</text>

  <!-- 추세 -->
  <rect x="240" y="500" width="820" height="160" class="card"/>
  <rect x="240" y="500" width="820" height="24" class="h"/>
  <text x="252" y="517" class="lb">최근 7일 OEE 추이</text>
  <line x1="270" y1="630" x2="1040" y2="630" stroke="#888"/>
  <polyline points="290,610 410,602 530,615 650,580 770,600 890,575 1010,565" fill="none" stroke="#1f3a93" stroke-width="2"/>
  <g font-size="10" fill="#333" text-anchor="middle">
    <text x="290" y="650">04-14</text>
    <text x="410" y="650">04-15</text>
    <text x="530" y="650">04-16</text>
    <text x="650" y="650">04-17</text>
    <text x="770" y="650">04-18</text>
    <text x="890" y="650">04-19</text>
    <text x="1010" y="650">04-20</text>
  </g>
</svg>
