<svg xmlns="http://www.w3.org/2000/svg" viewBox="0 0 1100 700" font-family="Helvetica, Arial, sans-serif">
  <style>
    .ttl{font-size:13px;font-weight:700;fill:#111}
    .lb{font-size:11px;fill:#111}
    .sm{font-size:10px;fill:#666}
    .menu{fill:#fff;font-size:11px}
    .frame{fill:#fff;stroke:#222;stroke-width:1.2}
    .card{fill:#fff;stroke:#bbb}
    .h{fill:#eef2f8;stroke:#bbb}
    .row1{fill:#fafafa}
    .input{fill:#fff;stroke:#888}
    .btn{fill:#1f3a93}
  </style>

  <text x="550" y="20" text-anchor="middle" class="ttl">Capture 2.  품목 관리  —  GET /api/items (FN-005) · 페이징 · 검색 · 안전재고 알림</text>
  <rect x="20" y="40" width="1060" height="640" class="frame"/>

  <!-- top + side -->
  <rect x="20" y="40" width="1060" height="40" fill="#1f3a93"/>
  <text x="40" y="65" fill="#fff" font-size="13" font-weight="700">DEXWEAVER MES  ›  📦 품목 관리</text>
  <text x="900" y="65" fill="#fff" font-size="11">user : ywlee (admin)</text>
  <rect x="20" y="80" width="200" height="600" fill="#243155"/>
  <text x="35" y="105" class="menu">📊 대시보드</text>
  <text x="35" y="128" class="menu" fill="#fff" font-weight="700">📦 품목 관리</text>
  <text x="35" y="151" class="menu">🧬 BOM</text>
  <text x="35" y="174" class="menu">🔄 공정 / 라우팅</text>
  <text x="35" y="197" class="menu">🏭 설비 관리</text>
  <text x="35" y="220" class="menu">📅 생산 계획</text>
  <text x="35" y="243" class="menu">📝 작업 지시</text>
  <text x="35" y="266" class="menu">✅ 품질 / SPC</text>
  <text x="35" y="289" class="menu">📈 OEE</text>
  <text x="35" y="312" class="menu">📦 재고</text>
  <text x="35" y="335" class="menu">🔍 LOT 추적</text>
  <text x="35" y="358" class="menu">🧠 AI 인사이트</text>

  <!-- toolbar -->
  <rect x="240" y="100" width="820" height="44" class="card"/>
  <text x="252" y="118" class="sm">검색</text>
  <rect x="252" y="123" width="220" height="22" class="input"/>
  <text x="258" y="139" font-size="11">PROD-A1</text>

  <text x="490" y="118" class="sm">카테고리</text>
  <rect x="490" y="123" width="120" height="22" class="input"/>
  <text x="498" y="139" font-size="11">제품 (PRODUCT) ▾</text>

  <rect x="950" y="118" width="100" height="24" rx="3" class="btn"/>
  <text x="1000" y="134" text-anchor="middle" fill="#fff" font-size="11" font-weight="700">＋ 품목등록</text>

  <!-- table header -->
  <rect x="240" y="160" width="820" height="34" class="h"/>
  <text x="252" y="180" class="lb">품목코드</text>
  <text x="380" y="180" class="lb">품목명</text>
  <text x="600" y="180" class="lb">카테고리</text>
  <text x="710" y="180" class="lb">단위</text>
  <text x="780" y="180" class="lb">규격</text>
  <text x="900" y="180" class="lb">현재고</text>
  <text x="990" y="180" class="lb">상태</text>

  <!-- rows -->
  <g font-size="11" fill="#111">
    <rect x="240" y="194" width="820" height="32" fill="#fafafa"/>
    <text x="252" y="214">ITM-00001</text>
    <text x="380" y="214">PROD-A1 / Smart Sensor</text>
    <text x="600" y="214">PRODUCT</text>
    <text x="710" y="214">EA</text>
    <text x="780" y="214">50×30×12 mm</text>
    <text x="900" y="214">186</text>
    <rect x="985" y="200" width="60" height="20" rx="10" fill="#cfe3cf" stroke="#1e7c39"/>
    <text x="1015" y="214" text-anchor="middle" fill="#1e7c39" font-weight="700">정상</text>

    <rect x="240" y="226" width="820" height="32" fill="#fff"/>
    <text x="252" y="246">ITM-00002</text>
    <text x="380" y="246">SEMI-B2 / PCB Assy</text>
    <text x="600" y="246">SEMI</text>
    <text x="710" y="246">EA</text>
    <text x="780" y="246">FR-4 1.6t</text>
    <text x="900" y="246">42</text>
    <rect x="985" y="232" width="60" height="20" rx="10" fill="#fff5d6" stroke="#b58800"/>
    <text x="1015" y="246" text-anchor="middle" fill="#b58800" font-weight="700">부족</text>

    <rect x="240" y="258" width="820" height="32" fill="#fafafa"/>
    <text x="252" y="278">ITM-00003</text>
    <text x="380" y="278">RAW-D2 / IC chip ATmega328</text>
    <text x="600" y="278">RAW</text>
    <text x="710" y="278">EA</text>
    <text x="780" y="278">DIP-28</text>
    <text x="900" y="278">24</text>
    <rect x="985" y="264" width="60" height="20" rx="10" fill="#f3d9d9" stroke="#c0392b"/>
    <text x="1015" y="278" text-anchor="middle" fill="#c0392b" font-weight="700">위험</text>

    <rect x="240" y="290" width="820" height="32" fill="#fff"/>
    <text x="252" y="310">ITM-00004</text>
    <text x="380" y="310">RAW-C1 / ABS resin pellet</text>
    <text x="600" y="310">RAW</text>
    <text x="710" y="310">KG</text>
    <text x="780" y="310">3 mm</text>
    <text x="900" y="310">820 kg</text>
    <rect x="985" y="296" width="60" height="20" rx="10" fill="#cfe3cf" stroke="#1e7c39"/>
    <text x="1015" y="310" text-anchor="middle" fill="#1e7c39" font-weight="700">정상</text>

    <rect x="240" y="322" width="820" height="32" fill="#fafafa"/>
    <text x="252" y="342">ITM-00005</text>
    <text x="380" y="342">SEMI-B1 / Housing molded</text>
    <text x="600" y="342">SEMI</text>
    <text x="710" y="342">EA</text>
    <text x="780" y="342">102 ea/lot</text>
    <text x="900" y="342">312</text>
    <rect x="985" y="328" width="60" height="20" rx="10" fill="#cfe3cf" stroke="#1e7c39"/>
    <text x="1015" y="342" text-anchor="middle" fill="#1e7c39" font-weight="700">정상</text>
  </g>

  <!-- pagination -->
  <text x="252" y="376" class="sm">총 248건  ·  page 1 / 50</text>
  <g font-size="11">
    <rect x="900" y="365" width="24" height="22" class="card"/><text x="912" y="380" text-anchor="middle">«</text>
    <rect x="924" y="365" width="24" height="22" fill="#1f3a93"/><text x="936" y="380" text-anchor="middle" fill="#fff">1</text>
    <rect x="948" y="365" width="24" height="22" class="card"/><text x="960" y="380" text-anchor="middle">2</text>
    <rect x="972" y="365" width="24" height="22" class="card"/><text x="984" y="380" text-anchor="middle">3</text>
    <rect x="996" y="365" width="24" height="22" class="card"/><text x="1008" y="380" text-anchor="middle">»</text>
  </g>

  <!-- detail -->
  <rect x="240" y="410" width="820" height="220" class="card"/>
  <rect x="240" y="410" width="820" height="28" class="h"/>
  <text x="252" y="429" class="lb">품목 상세  —  ITM-00001 / PROD-A1 Smart Sensor   (FN-006)</text>

  <text x="252" y="460" class="sm">코드</text>      <text x="252" y="478" class="lb">ITM-00001</text>
  <text x="380" y="460" class="sm">카테고리</text>  <text x="380" y="478" class="lb">PRODUCT</text>
  <text x="500" y="460" class="sm">단위</text>      <text x="500" y="478" class="lb">EA</text>
  <text x="600" y="460" class="sm">규격</text>      <text x="600" y="478" class="lb">50×30×12 mm</text>
  <text x="780" y="460" class="sm">안전재고</text>  <text x="780" y="478" class="lb">100 ea</text>
  <text x="900" y="460" class="sm">생성일</text>    <text x="900" y="478" class="lb">2026-03-04</text>

  <text x="252" y="510" class="sm">설명</text>
  <rect x="252" y="518" width="788" height="40" class="input" fill="#fafafa"/>
  <text x="262" y="540" font-size="11">자체개발 IoT 센서 모듈. 환경(온/습도/조도) 통합 측정. ESP32 기반.</text>

  <text x="252" y="580" class="sm">최근 변경</text>
  <text x="252" y="600" class="lb">2026-04-20 11:32  ywlee  →  안전재고 80 → 100 ea (수요 증가 대응)</text>
  <text x="252" y="618" class="lb">2026-04-12 09:14  ywlee  →  spec 50×30×12 mm 명시</text>
</svg>
